<?xml version="1.0" encoding="UTF-8"?>
<!-- Generator: Adobe Illustrator 22.1.0, SVG Export Plug-In . SVG Version: 6.00 Build 0)  -->
<svg version="1.1" id="Layer_1" xmlns="http://www.w3.org/2000/svg" xmlns:xlink="http://www.w3.org/1999/xlink" x="0px" y="0px" viewBox="0 0 404 89.2" style="enable-background:new 0 0 404 89.2;" xml:space="preserve">
<style type="text/css">
	.st0{fill:#182433;}
	.st1{fill:#0094FF;}
	.st2{fill:#00BBB4;}
</style>
<path class="st0" d="M340.7,66.6V87c0,0.9,0.9,1.7,1.9,1.7h17.1c1.1,0,1.9-0.8,1.9-1.7v-8.3c0-0.9,0.9-1.7,1.9-1.7h17.5  c1.1,0,1.9,0.8,1.9,1.7V87c0,0.9,0.9,1.7,1.9,1.7h17.1c1.1,0,1.9-0.8,1.9-1.7V66.6c0-0.5-0.3-1-0.7-1.3l-29.7-20.4  c-0.7-0.5-1.7-0.5-2.4,0l-29.7,20.4C341,65.6,340.7,66,340.7,66.6z"/>
<path class="st1" d="M403.3,42.5L373.5,22c-0.7-0.5-1.7-0.5-2.4,0l-29.7,20.4c-0.5,0.3-0.7,0.8-0.7,1.3v6.3v2v6.3  c0,0,0.3-0.2,0.7-0.5l29.7-20.4c0.7-0.5,1.7-0.5,2.4,0l29.7,20.4c0.5,0.3,0.7,0.6,0.7,0.6v-6.3v-2.1v-6.3  C404,43.3,403.7,42.8,403.3,42.5z"/>
<path class="st2" d="M403.3,20.8L373.5,0.4c-0.7-0.5-1.7-0.5-2.4,0l-29.7,20.4c-0.5,0.3-0.7,0.8-0.7,1.3v6.3v2v6.3  c0,0,0.3-0.2,0.7-0.5l29.7-20.4c0.7-0.5,1.7-0.5,2.4,0l29.7,20.4c0.5,0.3,0.7,0.6,0.7,0.6v-6.3v-2.1v-6.3  C404,21.6,403.7,21.1,403.3,20.8z"/>
<g>
	<path class="st0" d="M35.9,62.8c0,2.6-0.5,4.8-1.5,6.6c-1,1.8-2.4,3.2-4.2,4.3c-1.8,1.1-4,1.9-6.5,2.4c-2.6,0.5-5.4,0.7-8.6,0.7   c-2.8,0-5.2-0.1-7.2-0.2c-2-0.1-3.6-0.3-4.6-0.5c-1.1-0.2-2-0.6-2.5-1C0.3,74.6,0,73.8,0,72.6v-41c0-1.2,0.2-2,0.7-2.5   c0.5-0.5,1.3-0.8,2.4-1c0.9-0.1,2.4-0.3,4.4-0.4c2-0.2,4.4-0.2,7.1-0.2c3.1,0,5.9,0.2,8.5,0.7c2.6,0.5,4.8,1.2,6.7,2.2   c1.9,1,3.3,2.4,4.3,4.1c1,1.7,1.5,3.7,1.5,6.2v1.3c0,2.2-0.5,4.1-1.6,5.9c-1,1.8-2.6,3.1-4.7,3.9c2.1,0.9,3.7,2.1,4.9,3.7   c1.2,1.6,1.7,3.7,1.7,6.1V62.8z M26.4,41.1c0-2.3-0.9-3.9-2.6-4.8c-1.8-1-4.8-1.4-9.2-1.4c-0.8,0-1.7,0-2.6,0   c-0.9,0-1.7,0.1-2.4,0.1v13.3h8.7c1.6,0,2.9-0.2,4-0.5c1-0.3,1.9-0.8,2.5-1.3c0.6-0.6,1-1.2,1.3-2c0.2-0.8,0.4-1.6,0.4-2.4V41.1z    M26.6,61.8c0-0.9-0.1-1.8-0.4-2.6c-0.3-0.8-0.7-1.5-1.4-2.2c-0.7-0.6-1.5-1.1-2.6-1.5c-1.1-0.4-2.4-0.6-4-0.6H9.5v14.3   c0.8,0,1.8,0,2.9,0.1c1.1,0,2,0.1,2.7,0.1c2.2,0,4-0.1,5.5-0.4c1.5-0.3,2.6-0.7,3.5-1.2c0.9-0.6,1.5-1.3,1.9-2.1   c0.4-0.8,0.6-1.8,0.6-3V61.8z"/>
	<path class="st0" d="M53.3,33.4c0,0.3-0.1,0.7-0.4,0.9c-0.3,0.3-0.6,0.4-1,0.4h-6.6c-0.4,0-0.7-0.1-1-0.4c-0.3-0.3-0.4-0.6-0.4-0.9   v-5.7c0-0.3,0.1-0.7,0.4-0.9c0.3-0.3,0.6-0.4,1-0.4h6.6c0.4,0,0.7,0.1,1,0.4c0.3,0.3,0.4,0.6,0.4,0.9V33.4z M53.1,74.9   c0,0.3-0.1,0.7-0.4,0.9c-0.3,0.3-0.6,0.4-1,0.4h-6.3c-0.4,0-0.7-0.1-1-0.4c-0.3-0.3-0.4-0.6-0.4-0.9v-34c0-0.3,0.1-0.7,0.4-0.9   c0.3-0.3,0.6-0.4,1-0.4h6.3c0.4,0,0.7,0.1,1,0.4c0.3,0.3,0.4,0.6,0.4,0.9V74.9z"/>
	<path class="st0" d="M82.4,76.4c-0.8,0.1-1.6,0.2-2.4,0.3c-0.8,0.1-1.5,0.1-2.3,0.1c-1.9,0-3.6-0.1-4.9-0.4   c-1.4-0.3-2.5-0.8-3.4-1.5c-0.9-0.7-1.5-1.8-1.9-3.2c-0.4-1.4-0.6-3.1-0.6-5.3V46l-6.4-0.9c-0.4-0.1-0.7-0.2-1-0.5   c-0.3-0.2-0.4-0.5-0.4-0.8v-2.9c0-0.3,0.1-0.7,0.4-0.9c0.3-0.3,0.6-0.4,1-0.4h6.4v-5.3c0-0.3,0.1-0.6,0.4-0.8   c0.3-0.2,0.6-0.4,1-0.5l6.3-1h0.3c0.7,0,1.1,0.3,1.1,1v6.7h6.2c0.4,0,0.7,0.1,1,0.4c0.3,0.3,0.4,0.6,0.4,0.9v3.8   c0,0.3-0.1,0.7-0.4,0.9c-0.3,0.3-0.6,0.4-1,0.4h-6.2v20.4c0,0.8,0,1.5,0.1,2c0,0.5,0.2,0.8,0.3,1.1c0.2,0.3,0.4,0.4,0.8,0.5   c0.3,0.1,0.8,0.1,1.5,0.1h3.6c1,0,1.4,0.3,1.4,1v4.1C83.7,75.8,83.2,76.2,82.4,76.4z"/>
	<path class="st0" d="M137.5,75.3c-0.3,0.2-0.6,0.4-1.1,0.5c-0.3,0.1-0.7,0.2-1.4,0.3s-1.5,0.2-2.4,0.3c-1,0.1-2,0.2-3.2,0.3   c-1.2,0.1-2.4,0.1-3.8,0.1c-2.1,0-4.2-0.3-6.5-0.8c-2.3-0.6-4.4-1.6-6.2-3.1c-1.9-1.5-3.4-3.5-4.7-6.1c-1.2-2.6-1.9-5.9-1.9-9.9   v-9.6c0-4.1,0.6-7.4,1.9-10c1.2-2.6,2.8-4.6,4.7-6.1c1.9-1.5,4-2.5,6.2-3c2.3-0.5,4.4-0.8,6.5-0.8c1.3,0,2.6,0,3.8,0.1   c1.2,0.1,2.3,0.2,3.2,0.3c1,0.1,1.8,0.2,2.4,0.4s1.1,0.2,1.4,0.3c0.5,0.1,0.8,0.3,1.1,0.5c0.3,0.2,0.4,0.5,0.4,1v4.4   c0,0.4-0.1,0.7-0.3,1c-0.2,0.3-0.6,0.4-1.1,0.4h-0.1c-0.6,0-1.3-0.1-2.2-0.2c-0.8-0.1-1.7-0.1-2.7-0.2c-1,0-1.9-0.1-2.9-0.1   c-1,0-2-0.1-2.9-0.1c-1.5,0-2.8,0.2-4,0.6c-1.2,0.4-2.2,1.1-3.1,2c-0.9,0.9-1.6,2.2-2.1,3.7c-0.5,1.6-0.8,3.5-0.8,5.8v9.6   c0,2.3,0.2,4.2,0.8,5.7c0.5,1.6,1.2,2.8,2.1,3.8c0.9,1,1.9,1.6,3.1,2c1.2,0.4,2.5,0.6,4,0.6c0.9,0,1.9,0,2.9-0.1c1,0,2-0.1,2.9-0.1   s1.9-0.1,2.7-0.2c0.8-0.1,1.6-0.1,2.2-0.2h0.1c0.5,0,0.9,0.1,1.1,0.4c0.2,0.3,0.3,0.6,0.3,1v4.4C137.9,74.7,137.8,75.1,137.5,75.3z   "/>
	<path class="st0" d="M174.2,75c0,0.3-0.1,0.7-0.4,0.9c-0.3,0.3-0.6,0.4-1,0.4H167c-0.4,0-0.7-0.1-1-0.4c-0.3-0.3-0.4-0.6-0.4-0.9   v-1c-1.6,0.9-3.2,1.6-4.8,2.1c-1.6,0.5-3.2,0.7-4.9,0.7c-1.4,0-2.8-0.2-4.2-0.5c-1.4-0.3-2.7-0.9-3.8-1.7c-1.1-0.8-2-1.9-2.7-3.3   c-0.7-1.4-1.1-3.2-1.1-5.4v-0.3c0-1.9,0.3-3.5,0.9-4.9c0.6-1.4,1.6-2.6,2.9-3.5c1.3-1,3.1-1.7,5.2-2.1c2.1-0.5,4.7-0.7,7.6-0.7h4.3   v-2.9c0-2.1-0.5-3.6-1.5-4.3s-2.5-1-4.6-1c-2.2,0-4.3,0.1-6.4,0.2c-2.1,0.1-3.7,0.2-4.8,0.4h-0.3c-0.4,0-0.7-0.1-0.9-0.2   c-0.2-0.1-0.3-0.4-0.3-0.9v-4.1c0-0.7,0.4-1.2,1.3-1.4c1.4-0.3,3-0.5,5-0.7c1.9-0.2,4.1-0.3,6.5-0.3c4.9,0,8.6,1,11.2,3.1   c2.6,2,3.9,5.2,3.9,9.4V75z M165.1,60.2h-4.3c-1.6,0-2.8,0.1-3.8,0.4s-1.8,0.6-2.3,1c-0.6,0.5-1,1-1.2,1.7   c-0.2,0.7-0.3,1.5-0.3,2.4v0.3c0,1.6,0.4,2.7,1.2,3.2c0.8,0.5,2,0.8,3.8,0.8c1.2,0,2.5-0.2,3.7-0.5c1.2-0.3,2.3-0.8,3.3-1.3V60.2z"/>
	<path class="st0" d="M215,60.5c0,5.1-1.3,9.1-4,12c-2.7,2.9-6.8,4.3-12.3,4.3c-0.8,0-1.8,0-2.9-0.1c-1.1-0.1-2.4-0.2-3.6-0.4v11.5   c0,0.3-0.1,0.7-0.4,0.9c-0.3,0.3-0.6,0.4-1,0.4h-6.3c-0.4,0-0.7-0.1-1-0.4c-0.3-0.3-0.4-0.6-0.4-0.9V42.6c0-0.5,0.1-0.8,0.3-1.1   c0.2-0.2,0.7-0.5,1.5-0.7c2.1-0.5,4.4-0.9,6.8-1.2c2.4-0.3,4.7-0.5,6.9-0.5c5.5,0,9.6,1.4,12.3,4.3c2.7,2.9,4,6.9,4,12V60.5z    M206,55.5c0-1.3-0.1-2.6-0.3-3.7c-0.2-1.1-0.6-2.1-1.1-2.9c-0.5-0.8-1.3-1.5-2.3-1.9c-1-0.5-2.2-0.7-3.6-0.7c-1.2,0-2.5,0-3.7,0.1   c-1.3,0.1-2.2,0.2-2.8,0.3v22.6c1,0.1,2.1,0.2,3.4,0.3c1.3,0.1,2.4,0.1,3.2,0.1c1.5,0,2.7-0.2,3.6-0.7c1-0.5,1.7-1.1,2.3-1.9   c0.5-0.8,0.9-1.8,1.1-2.9c0.2-1.1,0.3-2.4,0.3-3.7V55.5z"/>
	<path class="st0" d="M232,33.4c0,0.3-0.1,0.7-0.4,0.9c-0.3,0.3-0.6,0.4-1,0.4H224c-0.4,0-0.7-0.1-1-0.4c-0.3-0.3-0.4-0.6-0.4-0.9   v-5.7c0-0.3,0.1-0.7,0.4-0.9c0.3-0.3,0.6-0.4,1-0.4h6.6c0.4,0,0.7,0.1,1,0.4c0.3,0.3,0.4,0.6,0.4,0.9V33.4z M231.8,74.9   c0,0.3-0.1,0.7-0.4,0.9c-0.3,0.3-0.6,0.4-1,0.4h-6.3c-0.4,0-0.7-0.1-1-0.4c-0.3-0.3-0.4-0.6-0.4-0.9v-34c0-0.3,0.1-0.7,0.4-0.9   c0.3-0.3,0.6-0.4,1-0.4h6.3c0.4,0,0.7,0.1,1,0.4c0.3,0.3,0.4,0.6,0.4,0.9V74.9z"/>
	<path class="st0" d="M261.1,76.4c-0.8,0.1-1.6,0.2-2.4,0.3c-0.8,0.1-1.5,0.1-2.3,0.1c-1.9,0-3.6-0.1-4.9-0.4   c-1.4-0.3-2.5-0.8-3.4-1.5c-0.9-0.7-1.5-1.8-1.9-3.2c-0.4-1.4-0.6-3.1-0.6-5.3V46l-6.4-0.9c-0.4-0.1-0.7-0.2-1-0.5   c-0.3-0.2-0.4-0.5-0.4-0.8v-2.9c0-0.3,0.1-0.7,0.4-0.9c0.3-0.3,0.6-0.4,1-0.4h6.4v-5.3c0-0.3,0.1-0.6,0.4-0.8   c0.3-0.2,0.6-0.4,1-0.5l6.3-1h0.3c0.7,0,1.1,0.3,1.1,1v6.7h6.2c0.4,0,0.7,0.1,1,0.4c0.3,0.3,0.4,0.6,0.4,0.9v3.8   c0,0.3-0.1,0.7-0.4,0.9c-0.3,0.3-0.6,0.4-1,0.4h-6.2v20.4c0,0.8,0,1.5,0.1,2c0,0.5,0.2,0.8,0.3,1.1c0.2,0.3,0.4,0.4,0.8,0.5   c0.3,0.1,0.8,0.1,1.5,0.1h3.6c1,0,1.4,0.3,1.4,1v4.1C262.4,75.8,262,76.2,261.1,76.4z"/>
	<path class="st0" d="M297.3,75c0,0.3-0.1,0.7-0.4,0.9c-0.3,0.3-0.6,0.4-1,0.4h-5.8c-0.4,0-0.7-0.1-1-0.4c-0.3-0.3-0.4-0.6-0.4-0.9   v-1c-1.6,0.9-3.2,1.6-4.8,2.1c-1.6,0.5-3.2,0.7-4.9,0.7c-1.4,0-2.8-0.2-4.2-0.5c-1.4-0.3-2.7-0.9-3.8-1.7c-1.1-0.8-2-1.9-2.7-3.3   c-0.7-1.4-1.1-3.2-1.1-5.4v-0.3c0-1.9,0.3-3.5,0.9-4.9c0.6-1.4,1.6-2.6,2.9-3.5c1.3-1,3.1-1.7,5.2-2.1c2.1-0.5,4.7-0.7,7.6-0.7h4.3   v-2.9c0-2.1-0.5-3.6-1.5-4.3s-2.5-1-4.6-1c-2.2,0-4.3,0.1-6.4,0.2c-2.1,0.1-3.7,0.2-4.8,0.4h-0.3c-0.4,0-0.7-0.1-0.9-0.2   c-0.2-0.1-0.3-0.4-0.3-0.9v-4.1c0-0.7,0.4-1.2,1.3-1.4c1.4-0.3,3-0.5,5-0.7c1.9-0.2,4.1-0.3,6.5-0.3c4.9,0,8.6,1,11.2,3.1   c2.6,2,3.9,5.2,3.9,9.4V75z M288.2,60.2h-4.3c-1.6,0-2.8,0.1-3.8,0.4s-1.8,0.6-2.3,1c-0.6,0.5-1,1-1.2,1.7   c-0.2,0.7-0.3,1.5-0.3,2.4v0.3c0,1.6,0.4,2.7,1.2,3.2c0.8,0.5,2,0.8,3.8,0.8c1.2,0,2.5-0.2,3.7-0.5c1.2-0.3,2.3-0.8,3.3-1.3V60.2z"/>
	<path class="st0" d="M315.2,75.9c-0.3,0.3-0.6,0.4-0.9,0.4h-6.4c-0.4,0-0.7-0.1-1-0.4c-0.3-0.3-0.4-0.6-0.4-0.9V28.1   c0-0.3,0.1-0.7,0.4-0.9c0.3-0.3,0.6-0.4,1-0.4h6.4c0.4,0,0.7,0.1,0.9,0.4c0.2,0.3,0.4,0.6,0.4,0.9v46.8   C315.5,75.3,315.4,75.6,315.2,75.9z"/>
</g>
</svg>